<?xml version="1.0" encoding="utf-8"?>
<!-- Generator: Adobe Illustrator 16.0.0, SVG Export Plug-In . SVG Version: 6.00 Build 0)  -->
<!DOCTYPE svg PUBLIC "-//W3C//DTD SVG 1.1//EN" "http://www.w3.org/Graphics/SVG/1.1/DTD/svg11.dtd">
<svg version="1.1" id="图层_1" xmlns="http://www.w3.org/2000/svg" xmlns:xlink="http://www.w3.org/1999/xlink" x="0px" y="0px"
	 width="60px" height="60px" viewBox="0 0 60 60" enable-background="new 0 0 60 60" xml:space="preserve">
<g>
	
		<path fill="none" stroke="#666666" stroke-width="0.75" stroke-linecap="round" stroke-linejoin="round" stroke-miterlimit="22.9256" d="
		M21.616,48.606v-2.044v-5.87V40.5l0.006-0.083l0.023-0.076l0.039-0.068l0.053-0.07l0.068-0.054l0.076-0.038l0.077-0.023
		l0.083-0.006l0.018,0.221l0.015,0.319l0.038,1.069l0.006,0.254l0.009,0.304l0.006,0.352v0.39V43.4l0.009,0.413v0.419v0.414v0.41
		v0.422l-0.009,0.42v0.41v0.384l-0.006,0.357l-0.009,0.305l-0.006,0.254l-0.038,1.068L22.06,48.99l-0.018,0.228l-0.083-0.006
		l-0.077-0.024l-0.076-0.038l-0.068-0.053l-0.053-0.068l-0.039-0.07l-0.023-0.083l-0.006-0.083V48.606L21.616,48.606z
		 M24.354,39.903l8.783,0.009 M42.899,38.097l-0.092,0.457l-0.098,0.417 M43.005,37.287l-0.047,0.435l-0.059,0.375 M43.1,35.908
		l-0.095,1.379 M39.367,39.912h0.009h0.023h0.039h0.05h0.059h0.068h0.074h0.079 M39.769,39.912h0.608 M40.377,39.912h0.187h0.197
		h0.192l0.186-0.009h0.181l0.168-0.006h0.153l0.151-0.009 M42.515,39.546l0.098-0.266l0.098-0.307 M39.379,49.409h0.006h0.023h0.039
		H39.5h0.06h0.064h0.074h0.079 M39.777,49.409h0.608 M40.386,49.409h0.184h0.188h0.189l0.18,0.006h0.178l0.162,0.009h0.15
		l0.127,0.006 M42.557,49.87l0.082,0.219l0.08,0.263l0.098,0.416l0.092,0.458l0.059,0.372l0.048,0.438l0.094,1.379 M14.585,38.072
		l0.089,0.458l0.098,0.417 M14.476,37.264l0.051,0.434l0.059,0.375 M14.385,35.885l0.091,1.379 M18.114,39.889h-0.009h-0.021h-0.042
		h-0.05h-0.06h-0.067h-0.074h-0.076 M17.716,39.889h-0.608 M15.196,39.818l0.095,0.038l0.133,0.009 M17.107,39.889H16.88h-0.236
		h-0.23l-0.225-0.009H15.97l-0.2-0.006h-0.184l-0.162-0.009 M15.196,39.818l-0.124-0.131l-0.127-0.227 M14.942,39.446l-0.086-0.23
		l-0.082-0.266 M14.588,51.226l0.092-0.458l0.098-0.416 M14.481,52.035l0.048-0.435l0.059-0.375 M14.388,53.414l0.094-1.379
		 M18.12,49.409h-0.009h-0.023h-0.039h-0.05h-0.06h-0.067h-0.074h-0.079 M17.719,49.409h-0.605 M15.202,49.478l0.095-0.038
		l0.133-0.007 M17.113,49.409h-0.228h-0.236h-0.233l-0.222,0.006h-0.222l-0.197,0.009h-0.187l-0.159,0.009 M15.202,49.478
		l-0.127,0.13l-0.124,0.23 M14.945,49.853l-0.086,0.228l-0.082,0.269 M43.959,48.143l0.048-0.23l0.006-0.062l0.139-0.839
		l0.098-0.848l0.056-0.854l0.006-0.856l-0.029-0.862l-0.068-0.854l-0.124-0.856l-0.053-0.321l-0.023-0.121 M40.8,47.431l0.053,0.101
		l0.053,0.101l0.063,0.106l0.053,0.098l0.054,0.1l0.053,0.106l0.048,0.101l0.053,0.106 M39.739,46.775l0.159,0.023l0.154,0.038
		l0.15,0.054l0.145,0.076l0.13,0.098l0.124,0.106l0.106,0.124l0.092,0.136 M41.098,41.31l-0.038,0.067l-0.039,0.077l-0.029,0.067
		l-0.038,0.071l-0.039,0.067l-0.038,0.068L40.838,41.8L40.8,41.867l-0.092,0.136l-0.106,0.124l-0.124,0.106l-0.13,0.092
		l-0.145,0.077l-0.15,0.059l-0.154,0.038l-0.159,0.015l-3.467,0.169 M36.272,46.616l3.467,0.159 M35.859,46.188l0.009,0.077
		l0.023,0.082l0.038,0.071l0.054,0.068l0.059,0.053l0.071,0.038l0.082,0.03l0.077,0.009 M43.142,49.867l0.082-0.009l0.08-0.029
		l0.136-0.101l0.124-0.198l0.115-0.289 M43.679,40.125l-0.109-0.26l-0.112-0.174l-0.147-0.106l-0.083-0.03l-0.082-0.009h-0.91
		l-0.076,0.009l-0.077,0.021l-0.136,0.1l-0.13,0.169l-0.124,0.242 M42.739,11.705l-0.076-0.006 M26.77,3.315l-0.009-0.038
		l-0.009-0.045l-0.021-0.038l-0.033-0.032l-0.029-0.021l-0.038-0.023l-0.039-0.015h-0.044 M25.99,3.103l-0.086,0.006l-0.083,0.023
		l-0.076,0.039l-0.063,0.053L25.63,3.292l-0.045,0.076l-0.023,0.086l-0.006,0.083 M30.922,3.103h-0.048l-0.038,0.015l-0.035,0.023
		l-0.033,0.021l-0.029,0.032l-0.015,0.038l-0.018,0.045v0.038 M29.365,3.315l-0.009-0.038l-0.009-0.045l-0.021-0.038l-0.024-0.032
		l-0.038-0.021l-0.038-0.023l-0.038-0.015h-0.039 M28.326,3.103h-0.048l-0.035,0.015l-0.038,0.023l-0.033,0.021l-0.029,0.032
		l-0.015,0.038l-0.015,0.045l-0.009,0.038 M31.914,3.537l-0.009-0.083l-0.021-0.086l-0.038-0.076l-0.053-0.068l-0.071-0.053
		l-0.077-0.039l-0.073-0.023l-0.086-0.006 M31.485,3.103h-0.563 M29.149,3.103h-0.823 M26.548,3.103H25.99 M31.914,8.988
		l0.009-0.054l0.015-0.047l0.021-0.044l0.032-0.039l0.039-0.032l0.044-0.021l0.053-0.015l0.048-0.009 M32.174,3.965l-0.048-0.009
		L32.073,3.95l-0.044-0.032L31.99,3.889L31.958,3.85l-0.021-0.044l-0.015-0.048l-0.009-0.053 M33.464,10.896h-0.145 M33.493,10.896
		h-0.029 M32.584,8.729l0.038-0.009l0.039-0.015l0.032-0.024l0.029-0.021l0.023-0.032l0.021-0.038l0.009-0.036l0.009-0.038
		 M32.785,4.178L32.776,4.14l-0.009-0.039l-0.021-0.038l-0.023-0.029L32.693,4.01l-0.032-0.021l-0.039-0.018l-0.038-0.006
		 M32.174,8.729h0.41 M32.584,3.965h-0.41 M25.547,10.309l-0.009,0.076 M39.471,54.438l0.023,0.452l0.029,0.274l0.063,0.245
		l0.13,0.197 M17.691,55.67l0.063-0.063 M39.716,55.607l0.067,0.063 M17.99,33.073v-0.032 M19.724,31.311h2.953 M22.677,36.271
		v0.136 M22.677,36.271l0.015-0.169l0.053-0.168l0.077-0.145l0.106-0.13l0.13-0.115l0.153-0.074l0.159-0.056l0.169-0.015
		 M33.928,35.4l0.168,0.015l0.163,0.056l0.15,0.074l0.13,0.115l0.106,0.13l0.085,0.145l0.045,0.168l0.018,0.169 M34.793,36.407
		v-0.136 M33.928,35.4H23.539 M34.793,36.407v0.375v0.366v0.337v0.313 M22.677,36.407v0.375v0.366v0.337v0.313 M34.793,38.463
		v-0.665 M22.677,37.798v0.665 M33.493,39.667h0.871 M23.11,39.667h0.862 M34.793,39.242l-0.009,0.083l-0.023,0.076l-0.039,0.077
		l-0.053,0.067L34.601,39.6l-0.076,0.038l-0.077,0.023l-0.083,0.006 M34.793,39.242v-0.057v-0.15V38.79v-0.327 M22.677,39.242
		l0.009,0.083l0.021,0.076l0.047,0.077l0.054,0.067l0.062,0.054l0.074,0.038l0.086,0.023l0.082,0.006 M22.677,38.463v0.327v0.245
		v0.15v0.057 M24.354,39.903l-0.021-0.038l-0.053-0.068l-0.063-0.053l-0.076-0.038l-0.083-0.024l-0.086-0.015 M33.109,39.912
		l0.027-0.047l0.053-0.068l0.068-0.053l0.076-0.038l0.077-0.024l0.082-0.015 M41.228,48.249l0.029,0.067 M41.691,40.087
		l-0.296,0.644l-0.257,0.481l-0.026,0.067l-0.015,0.03 M41.257,48.316l0.198,0.42l0.236,0.534l0.109,0.236l0.106,0.184l0.145,0.124
		l0.091,0.038l0.101,0.015h0.901 M43.679,49.241l0.015-0.038l0.184-0.671l0.053-0.254l0.029-0.136 M44.013,41.439l-0.136-0.632
		l-0.184-0.645l-0.015-0.038 M34.364,16.025h7.788 M43.021,15.157l-0.024,0.174l-0.044,0.159l-0.086,0.146l-0.106,0.139l-0.13,0.106
		l-0.145,0.076l-0.168,0.054l-0.165,0.015 M34.364,16.025l-0.168-0.015l-0.168-0.054l-0.145-0.076l-0.14-0.106l-0.105-0.139
		l-0.077-0.146l-0.053-0.159l-0.016-0.174 M15.317,16.025l-0.168-0.015l-0.159-0.054l-0.154-0.076l-0.13-0.106L14.6,15.636
		l-0.082-0.146l-0.048-0.159l-0.015-0.174 M23.973,15.157l-0.015,0.174l-0.053,0.159l-0.077,0.146l-0.106,0.139l-0.13,0.106
		l-0.153,0.076l-0.159,0.054l-0.169,0.015 M15.317,16.025h7.793 M43.021,15.157v-0.13 M23.973,15.157v-0.13 M14.455,15.027v0.13
		 M33.493,15.027v0.13 M43.021,13.63v0.313v0.343v0.357v0.384 M14.455,15.027v-0.384v-0.357v-0.343V13.63 M43.021,12.928v0.702
		 M14.455,13.63v-0.702 M42.663,11.714l0.006-0.032 M34.793,10.89l1.976,0.054l1.979,0.145l1.97,0.251l1.952,0.343 M14.798,11.682
		l1.964-0.343l1.961-0.251l1.976-0.145l1.979-0.054 M42.739,11.714l0.068,0.023l0.115,0.098l0.067,0.13l0.03,0.145 M43.021,12.109
		v0.054v0.168v0.251v0.346 M14.455,12.109l0.023-0.145l0.074-0.13l0.115-0.098l0.13-0.056 M14.455,12.928v-0.346v-0.26v-0.159
		v-0.054 M24.103,10.89h-1.426 M34.793,10.89h-1.43 M26.77,3.315v0.038V3.46v0.184v0.26v0.321v0.372v0.399v0.428v0.458v0.463v0.481
		v0.481V7.76v0.41v0.352v0.298 M25.556,3.537v0.029v0.101v0.168V4.08v0.289v0.352v0.372v0.399v0.419v0.434v0.452V7.24v0.419V8.04
		v0.322v0.28 M30.706,8.819V8.599V8.348V8.049V7.736V7.385V7.027V6.652V6.277V5.92V5.568V5.231V4.919V4.605V4.322V4.057v-0.23V3.637
		V3.492v-0.1V3.33V3.324 M29.365,8.819V8.599V8.348V8.049V7.736V7.385V7.027V6.652V6.277V5.92V5.568V5.24V4.919V4.605V4.322V4.057
		v-0.23V3.637V3.492v-0.1V3.33V3.324 M28.104,6.345v0.703v0.688v0.603v0.48 M28.104,3.33v0.009v0.098v0.2v0.296v0.398v0.458V5.3
		v0.528v0.517 M31.914,8.643v-0.44V7.636V6.971V6.286V5.622V5.02V4.467V4.01V3.696v-0.15v0.006 M32.785,8.516V8.46V8.339V8.247
		V8.132V7.843V7.5V7.11V6.72V6.315V5.911V5.53V5.332V5.149V4.804V4.529V4.331V4.216V4.178 M26.77,8.819v0.169v0.213v0.245v0.251
		 M25.556,8.643v0.201v0.26v0.295v0.299 M30.706,9.697V9.446V9.201V8.988V8.819 M29.365,9.697V9.446V9.201V8.988V8.819
		 M31.914,9.697V9.398V9.104v-0.26V8.643 M28.104,8.819v0.169v0.213v0.245v0.251 M24.838,10.89h-0.384h-0.352 M33.363,10.89h-0.352
		h-0.381 M32.631,10.89h-0.067 M31.914,10.24V9.697 M24.906,10.89h-0.068 M25.556,9.697v0.543 M29.365,10.684V9.697 M30.706,10.684
		V9.697 M30.487,10.896h-0.909 M27.892,10.896h-0.909 M28.104,9.697v0.986 M26.77,9.697v0.986 M32.563,10.89l-0.124-0.009
		l-0.121-0.038l-0.115-0.063l-0.098-0.082l-0.076-0.092l-0.063-0.115l-0.038-0.121l-0.015-0.13 M25.556,10.24l-0.018,0.13
		L25.5,10.491l-0.054,0.115l-0.082,0.092l-0.101,0.082l-0.112,0.063l-0.115,0.038l-0.13,0.009 M29.578,10.896h-0.039l-0.047-0.015
		l-0.035-0.015l-0.033-0.032L29.4,10.805l-0.021-0.039l-0.015-0.038v-0.044 M30.706,10.684L30.7,10.728l-0.015,0.038l-0.015,0.039
		l-0.033,0.029l-0.029,0.032l-0.038,0.015l-0.039,0.015h-0.044 M28.104,10.684v0.044l-0.015,0.038l-0.016,0.039l-0.032,0.029
		l-0.029,0.032l-0.038,0.015l-0.039,0.015h-0.044 M26.982,10.896h-0.039l-0.047-0.015l-0.035-0.015l-0.033-0.032l-0.029-0.029
		l-0.015-0.039l-0.015-0.038v-0.044 M31.332,13.271h-5.188 M26.144,13.271L25.7,13.294l-0.451,0.076l-0.411,0.121 M32.631,13.491
		l-0.404-0.121l-0.458-0.076l-0.437-0.023 M32.631,13.491l0.357,0.337l0.275,0.428l0.177,0.473l0.053,0.487 M36.302,19.781
		l5.206-0.685 M22.677,21.5v14.771 M23.973,15.216l0.057-0.487l0.174-0.473l0.274-0.428l0.36-0.337 M21.174,19.781l-5.216-0.685
		 M34.793,36.271V21.5 M14.455,17.378v-2.221 M43.021,17.378v-2.221 M34.793,21.5l0.029-0.313l0.083-0.299l0.139-0.283l0.183-0.251
		l0.222-0.213l0.26-0.168l0.29-0.124l0.304-0.068 M21.174,19.781l0.304,0.068l0.283,0.124l0.26,0.168l0.228,0.213l0.184,0.251
		l0.13,0.283l0.086,0.299l0.029,0.313 M14.455,17.378l0.023,0.313l0.083,0.299l0.139,0.28l0.184,0.254l0.228,0.213l0.26,0.168
		l0.283,0.121l0.304,0.071 M41.508,19.097l0.308-0.071l0.289-0.121l0.26-0.168l0.222-0.213l0.184-0.254l0.136-0.28l0.085-0.299
		l0.03-0.313 M22.686,38.714l-0.009-0.121 M25.532,10.37l0.023-0.124 M35.859,48.606v-2.044v-5.87V40.5l-0.006-0.083l-0.024-0.076
		l-0.038-0.068l-0.053-0.07l-0.068-0.054l-0.077-0.038l-0.076-0.023l-0.083-0.006l-0.018,0.221l-0.015,0.319l-0.038,1.069
		l-0.006,0.254l-0.01,0.304L35.342,42.6v0.39V43.4l-0.009,0.413v0.419v0.414v0.41v0.422l0.009,0.42v0.41v0.384l0.006,0.357
		l0.01,0.305l0.006,0.254l0.038,1.068l0.015,0.313l0.018,0.228l0.083-0.006l0.076-0.024l0.077-0.038l0.068-0.053l0.053-0.068
		l0.038-0.07l0.024-0.083l0.006-0.083V48.606 M22.042,49.218l-0.074,0.076l-0.207,0.054l-0.289,0.023l-0.398,0.006 M33.411,39.912
		h2.982 M35.434,40.081l0.074-0.086l0.206-0.044l0.284-0.024l0.396-0.015 M21.073,39.912l0.375,0.015l0.313,0.024l0.207,0.044
		l0.074,0.086 M36.394,49.377l-0.372-0.006l-0.308-0.023l-0.206-0.054l-0.074-0.076 M20.799,49.386h-1.152 M36.668,39.912h2.758
		 M37.822,49.386h-1.154 M19.646,39.912h1.152 M33.137,49.386h-8.804 M21.073,49.377l-0.274,0.009 M36.394,39.912h0.274
		 M33.411,49.377l-0.274,0.009 M33.137,39.912h0.274 M20.799,39.912h0.274 M36.668,49.386l-0.274-0.009 M37.631,49.395h0.52
		l0.505,0.006h0.458l0.39,0.009 M37.631,49.395H19.836 M19.836,49.395h-0.487l-0.49,0.006h-0.438l-0.372,0.009 M40.448,49.409
		h-0.009 M19.836,39.903h-0.49l-0.49-0.006h-0.44l-0.372-0.009 M39.494,49.409h0.009 M15.347,44.625v4.799 M15.347,39.862v4.763
		 M17.754,55.607l0.098-0.121l0.067-0.13l0.048-0.145l0.015-0.153 M18.005,54.438l-0.009,0.254v0.198l-0.006,0.121l-0.009,0.047
		 M15.234,55.897l-0.298-0.063l-0.263-0.162l-0.18-0.242l-0.121-0.307 M17.143,55.897h-1.908 M17.143,55.897l0.251-0.038
		l0.145-0.077l0.153-0.112 M17.99,33.073v-0.032 M17.99,33.073l0.006,0.558 M18.02,36.425l-0.015-1.027V34.6 M17.996,34.677V34.6
		v-0.969 M17.996,54.433l0.018-0.9l0.006-0.954l0.009-1.039l0.015-1.093l0.006-1.037 M18.043,39.889v-0.334l-0.009-1.107
		l-0.006-1.01 M18.028,37.438l-0.009-1.013 M14.379,33.522l-0.01,1.007l-0.006,0.975l-0.015,0.921 M14.349,36.425l-0.009,1.03
		l-0.009,1.069l-0.006,1.148l-0.009,1.188l-0.006,1.252v1.27v1.3v1.299v1.291l0.006,1.275l0.009,1.237l0.006,1.196l0.009,1.134
		l0.009,1.078l0.015,0.989l0.006,0.936 M43.097,33.631v-0.108 M43.097,33.631l0.009,0.969l0.006,0.939l0.009,0.886 M43.12,36.425
		l0.006,0.992l0.009,1.03l0.01,1.099 M43.145,49.867v0.641l-0.01,1.072l-0.015,1.033l-0.009,0.937l-0.015,0.889"/>
	
		<path fill="none" stroke="#666666" stroke-width="0.75" stroke-linecap="round" stroke-linejoin="round" stroke-miterlimit="22.9256" d="
		M43.097,54.438l-0.009,0.26v0.201l-0.006,0.121l-0.018,0.101l-0.065,0.28l-0.2,0.269l-0.266,0.165l-0.299,0.063h-1.901
		l-0.251-0.038l-0.153-0.077l-0.146-0.112 M39.479,33.631L39.471,34.6v0.077 M39.471,34.579l-0.006,0.807l-0.009,1.039
		 M39.479,33.631v-0.558 M39.479,33.073v-0.032 M39.456,36.425l-0.015,0.906 M39.441,37.331l-0.01,1.075l-0.006,1.154v0.352
		 M39.426,49.409l0.006,1.046l0.01,1.093l0.006,1.036l0.018,0.954l0.006,0.9 M43.097,33.522l-0.023-0.319l-0.059-0.328
		 M41.859,31.311l0.398,0.304l0.334,0.375l0.254,0.429l0.169,0.457 M14.455,32.875l-0.062,0.328l-0.015,0.319 M14.455,32.875
		l0.169-0.457l0.251-0.429l0.336-0.375l0.396-0.304 M19.724,31.311l-0.352,0.038l-0.331,0.098l-0.289,0.159l-0.251,0.207
		l-0.207,0.254l-0.159,0.295l-0.106,0.331l-0.038,0.349 M39.479,33.041l-0.038-0.349l-0.101-0.331l-0.16-0.295l-0.206-0.254
		l-0.251-0.207l-0.299-0.159l-0.327-0.098l-0.352-0.038 M17.813,29.958l0.42-0.228l0.451-0.162l0.467-0.098l0.481-0.033
		 M37.847,29.438l0.472,0.033l0.464,0.098l0.452,0.162l0.428,0.228 M15.607,31.311l2.205-1.353 M19.632,29.438h3.045 M34.793,29.438
		h3.054 M39.662,29.958l2.197,1.353 M41.15,48.096l0.077,0.153 M36.272,46.616v-0.039v-0.085v-0.13v-0.166V45.98v-0.244V45.47
		v-0.289v-0.308v-0.304v-0.304v-0.299v-0.283v-0.26v-0.222v-0.189v-0.153v-0.106v-0.062v-0.009l-0.077,0.009l-0.082,0.029
		l-0.071,0.038l-0.059,0.054l-0.054,0.07l-0.038,0.068l-0.023,0.077l-0.009,0.097 M33.493,15.216V35.4 M23.973,35.4V15.216
		 M33.104,39.912h0.033 M19.836,39.903h4.521 M19.724,31.311h2.953 M34.793,31.311h2.953"/>
</g>
</svg>
