<?xml version="1.0" encoding="utf-8"?>
<!-- Generator: Adobe Illustrator 16.0.0, SVG Export Plug-In . SVG Version: 6.00 Build 0)  -->
<!DOCTYPE svg PUBLIC "-//W3C//DTD SVG 1.1//EN" "http://www.w3.org/Graphics/SVG/1.1/DTD/svg11.dtd">
<svg version="1.1" id="图层_1" xmlns="http://www.w3.org/2000/svg" xmlns:xlink="http://www.w3.org/1999/xlink" x="0px" y="0px"
	 width="60px" height="60px" viewBox="0 0 60 60" enable-background="new 0 0 60 60" xml:space="preserve">
<g>
	<path fill-rule="evenodd" clip-rule="evenodd" fill="none" stroke="#666666" stroke-width="0.75" stroke-miterlimit="10" d="
		M30.586,18.821c1.773,0.021,4.324,0.044,6.873,0.093c1.205,0.025,2.41,0.085,3.613,0.163c0.904,0.056,1.809,0.147,2.707,0.266
		c0.686,0.091,1.354,0.28,1.945,0.67c0.717,0.473,1.168,1.154,1.441,1.957c0.238,0.701,0.301,1.431,0.305,2.171
		c0.004,0.591,0.041,1.185,0.025,1.772c-0.027,1.118-0.084,2.233-0.121,3.347c-0.025,0.762-0.088,1.523-0.262,2.27
		c-0.184,0.774-0.561,1.444-1.078,2.048c-0.619,0.722-1.34,1.324-2.08,1.913c-0.984,0.777-1.961,1.565-2.967,2.316
		c-1.166,0.869-2.418,1.598-3.768,2.151c-1.121,0.458-2.281,0.775-3.482,0.953c-1.445,0.215-2.896,0.305-4.354,0.253
		c-0.961-0.031-1.925-0.105-2.879-0.227c-0.788-0.096-1.57-0.261-2.342-0.445c-0.777-0.185-1.503-0.521-2.209-0.896
		c-1.541-0.822-2.947-1.85-4.371-2.849c-0.795-0.56-1.581-1.125-2.293-1.79c-0.918-0.852-1.729-1.787-2.26-2.939
		c-0.276-0.6-0.398-1.235-0.465-1.885c-0.127-1.249-0.033-2.499-0.036-3.75c-0.003-0.808-0.01-1.618,0.008-2.425
		c0.016-0.665,0.073-1.324,0.275-1.965c0.299-0.948,0.933-1.625,1.777-2.112c0.696-0.398,1.464-0.594,2.257-0.677
		c0.585-0.062,1.174-0.113,1.764-0.134c2.074-0.065,4.149-0.127,6.225-0.172C26.493,18.865,28.15,18.853,30.586,18.821
		L30.586,18.821z M13.139,25.769L13.139,25.769c0,0.179-0.003,0.335,0,0.49c0.026,1.328-0.072,2.655,0.064,3.98
		c0.064,0.649,0.23,1.271,0.547,1.846c0.668,1.214,1.603,2.201,2.688,3.039c1.735,1.331,3.509,2.608,5.407,3.701
		c0.704,0.407,1.427,0.795,2.224,0.99c0.771,0.189,1.547,0.374,2.331,0.483c0.908,0.123,1.827,0.203,2.743,0.23
		c0.963,0.026,1.93-0.015,2.891-0.062c1.166-0.057,2.314-0.241,3.438-0.559c1.547-0.441,2.973-1.14,4.313-2.021
		c1.311-0.856,2.516-1.85,3.729-2.834c0.67-0.547,1.346-1.085,1.926-1.732c0.504-0.562,0.893-1.177,1.068-1.92
		c0.172-0.71,0.223-1.431,0.254-2.154c0.047-1.064,0.074-2.13,0.111-3.196c0.01-0.282,0.014-0.282-0.264-0.282
		c-11.09,0-22.18,0-33.271,0C13.275,25.769,13.217,25.769,13.139,25.769L13.139,25.769z M30.018,25.099L30.018,25.099
		c5.486,0,10.975,0,16.461,0c0.07,0,0.145,0,0.217,0c0.123-0.002,0.182-0.069,0.18-0.192c-0.002-0.106-0.008-0.211-0.01-0.316
		c-0.012-0.759-0.018-1.521-0.234-2.256c-0.238-0.805-0.656-1.489-1.42-1.905c-0.469-0.254-0.967-0.392-1.508-0.433
		c-1.223-0.089-2.441-0.239-3.666-0.313c-1.273-0.074-2.553-0.126-3.83-0.128c-3.615-0.015-7.232-0.027-10.85,0.013
		c-2.682,0.029-5.364,0.121-8.047,0.211c-0.729,0.024-1.447,0.18-2.117,0.493c-0.974,0.458-1.654,1.164-1.879,2.244
		c-0.154,0.734-0.166,1.482-0.174,2.231c-0.004,0.315,0.033,0.352,0.352,0.352C19,25.099,24.51,25.099,30.018,25.099L30.018,25.099z
		"/>
	
		<rect x="12.646" y="25" fill-rule="evenodd" clip-rule="evenodd" fill="none" stroke="#666666" stroke-width="0.75" stroke-miterlimit="10" width="0.492" height="0.769"/>
	
		<rect x="46.859" y="25.156" fill-rule="evenodd" clip-rule="evenodd" fill="none" stroke="#666666" stroke-width="0.75" stroke-miterlimit="10" width="0.391" height="0.625"/>
</g>
</svg>
