<?xml version="1.0" encoding="utf-8"?>
<!-- Generator: Adobe Illustrator 16.0.0, SVG Export Plug-In . SVG Version: 6.00 Build 0)  -->
<!DOCTYPE svg PUBLIC "-//W3C//DTD SVG 1.1//EN" "http://www.w3.org/Graphics/SVG/1.1/DTD/svg11.dtd">
<svg version="1.1" id="图层_1" xmlns="http://www.w3.org/2000/svg" xmlns:xlink="http://www.w3.org/1999/xlink" x="0px" y="0px"
	 width="60px" height="60px" viewBox="0 0 60 60" enable-background="new 0 0 60 60" xml:space="preserve">
<path fill-rule="evenodd" clip-rule="evenodd" fill="#666666" stroke="#666666" stroke-width="0.7" stroke-miterlimit="10" d="
	M29.978,36.451c-4.362,0-8.726,0.002-13.089,0c-0.851,0-1.698-0.045-2.513-0.322c-1.104-0.377-1.743-1.138-1.833-2.314
	c-0.041-0.537-0.049-1.076-0.041-1.612c0.014-1.052,0.04-2.1,0.076-3.151c0.029-0.856,0.115-1.706,0.404-2.521
	c0.47-1.332,1.389-2.149,2.788-2.361c0.737-0.11,1.486-0.145,2.231-0.194c1.645-0.113,3.289-0.241,4.936-0.31
	c1.701-0.074,3.406-0.121,5.108-0.116c2.968,0.01,5.937,0.052,8.907,0.111c1.263,0.024,2.527,0.105,3.791,0.189
	c1.088,0.071,2.174,0.165,3.257,0.28c1.043,0.113,1.92,0.557,2.533,1.442c0.394,0.569,0.615,1.214,0.716,1.891
	c0.086,0.579,0.146,1.162,0.168,1.745c0.044,1.233,0.062,2.465,0.081,3.698c0.005,0.3-0.015,0.605-0.047,0.905
	c-0.118,1.217-0.79,2.017-1.965,2.361c-0.785,0.231-1.59,0.278-2.4,0.278C38.718,36.451,34.348,36.451,29.978,36.451L29.978,36.451z
	 M13.362,30.056L13.362,30.056c11.104,0,22.183,0,33.268,0c0.007-0.04,0.015-0.066,0.013-0.092
	c-0.057-0.792-0.094-1.585-0.186-2.373c-0.041-0.354-0.162-0.711-0.3-1.043c-0.436-1.052-1.28-1.549-2.373-1.643
	c-1.536-0.128-3.075-0.238-4.613-0.335c-3.274-0.204-6.552-0.269-9.832-0.238c-2.35,0.02-4.699,0.081-7.048,0.167
	c-1.479,0.055-2.955,0.183-4.432,0.286c-0.664,0.044-1.332,0.081-1.99,0.177c-1.09,0.162-1.785,0.817-2.139,1.849
	c-0.271,0.795-0.329,1.62-0.367,2.449C13.352,29.521,13.362,29.782,13.362,30.056L13.362,30.056z M13.329,30.885L13.329,30.885
	c0,0.96-0.023,1.903,0.008,2.841c0.023,0.697,0.359,1.231,1.014,1.531c0.459,0.215,0.948,0.32,1.446,0.343
	c1.015,0.044,2.031,0.078,3.048,0.078c7.245,0.008,14.491,0.008,21.737,0.005c1.076,0,2.154-0.017,3.23-0.049
	c0.601-0.02,1.196-0.102,1.755-0.343c0.465-0.199,0.829-0.509,0.982-1.009c0.071-0.234,0.123-0.487,0.125-0.731
	c0.013-0.748-0.002-1.494-0.012-2.242c0-0.138-0.013-0.276-0.022-0.424C35.54,30.885,24.458,30.885,13.329,30.885L13.329,30.885z"/>
</svg>
