<?xml version="1.0" encoding="utf-8"?>
<!-- Generator: Adobe Illustrator 16.0.0, SVG Export Plug-In . SVG Version: 6.00 Build 0)  -->
<!DOCTYPE svg PUBLIC "-//W3C//DTD SVG 1.1//EN" "http://www.w3.org/Graphics/SVG/1.1/DTD/svg11.dtd">
<svg version="1.1" id="图层_1" xmlns="http://www.w3.org/2000/svg" xmlns:xlink="http://www.w3.org/1999/xlink" x="0px" y="0px"
	 width="24.667px" height="27.833px" viewBox="0 0 24.667 27.833" enable-background="new 0 0 24.667 27.833" xml:space="preserve">
<g>
	<g>
		<g>
			<path fill="#666666" d="M12.333,5.917c2.137,0,4.146,0.832,5.658,2.343c3.118,3.119,3.118,8.195,0,11.314
				c-1.512,1.511-3.521,2.343-5.658,2.343c-2.137,0-4.146-0.832-5.657-2.343c-3.119-3.119-3.119-8.195,0-11.314
				C8.187,6.749,10.196,5.917,12.333,5.917 M12.333,4.917c-2.303,0-4.607,0.879-6.364,2.636c-3.514,3.515-3.514,9.213,0,12.729
				c1.757,1.757,4.061,2.636,6.364,2.636s4.607-0.879,6.365-2.636c3.514-3.516,3.514-9.213,0-12.729
				C16.94,5.795,14.636,4.917,12.333,4.917L12.333,4.917z"/>
		</g>
		
			<line fill="none" stroke="#666666" stroke-linecap="round" stroke-miterlimit="10" x1="18.698" y1="20.281" x2="21.333" y2="22.917"/>
	</g>
	<g>
		
			<line fill="none" stroke="#666666" stroke-width="0.5" stroke-linecap="round" stroke-miterlimit="10" x1="8.583" y1="13.917" x2="16.083" y2="13.917"/>
		
			<line fill="none" stroke="#666666" stroke-width="0.5" stroke-linecap="round" stroke-miterlimit="10" x1="12.333" y1="17.667" x2="12.333" y2="10.167"/>
	</g>
</g>
</svg>
