<?xml version="1.0" encoding="utf-8"?>
<!-- Generator: Adobe Illustrator 18.0.0, SVG Export Plug-In . SVG Version: 6.00 Build 0)  -->
<!DOCTYPE svg PUBLIC "-//W3C//DTD SVG 1.1//EN" "http://www.w3.org/Graphics/SVG/1.1/DTD/svg11.dtd">
<svg version="1.1" id="图层_1" xmlns="http://www.w3.org/2000/svg" xmlns:xlink="http://www.w3.org/1999/xlink" x="0px" y="0px"
	 viewBox="212.6 623.8 170 40" enable-background="new 212.6 623.8 170 40" xml:space="preserve">
<g>
	<path fill="#FFFFFF" d="M268.9,637h10.5v1.3l-7,10h4.6c1.4,0,2.4,1.1,2.4,2.4l0,0h-10.7v-1.5l7-9.7h-4.3
		C269.9,639.5,268.9,638.4,268.9,637L268.9,637z"/>
	<path fill="#FFFFFF" d="M290.2,648.1v-3h-6.8v5.5l0,0c-1.5,0-2.6-1.2-2.6-2.6v-11l0,0c1.5,0,2.6,1.2,2.6,2.6v3.2h6.8V637l0,0
		c1.5,0,2.6,1.2,2.6,2.6v11.1l0,0C291.4,650.8,290.2,649.6,290.2,648.1z"/>
	<path fill="#FFFFFF" d="M295.2,648.1V637l0,0c1.5,0,2.6,1.2,2.6,2.6v11.1l0,0C296.4,650.7,295.2,649.5,295.2,648.1z"/>
	<path fill="#FFFFFF" d="M309.7,637h1.2l0,0l-4.6,6.7l5,7l0,0H310l-4.4-6.3l-4.4,6.3h-1.3l0,0l5-7l-4.7-6.7l0,0h1.2l4.2,5.8
		L309.7,637z"/>
	<path fill="#FFFFFF" d="M313.2,650.7V637h1.1v13.7L313.2,650.7L313.2,650.7z"/>
	<path fill="#FFFFFF" d="M317.8,637l9.2,11.3V637h1.1v13.7h-0.4l-9.2-11.3v11.3h-1.2V637H317.8z"/>
	<path fill="#FFFFFF" d="M341.8,639.6c-1.2-1.2-2.9-1.7-4.4-1.7c-4,0-6.1,2.9-6.1,6.1s2,6,6.1,6c1.5,0,3-0.5,4.2-1.6v-3.9h-4.7v-1
		h5.8v5.1c-1.5,1.5-3.1,2.2-5.1,2.2c-4.6,0-7-3.3-7-7c0-4.3,2.9-7,7-7c1.8,0,3.6,0.7,5,2L341.8,639.6z"/>
	<path fill="#FFFFFF" d="M356.7,648.8c-1.4,1.4-3.2,2-5,2c-4.6,0-7-3.2-7-7c0-3.7,2.3-7,7-7c1.8,0,3.6,0.7,5,2l-0.7,0.6
		c-1.2-1.2-2.7-1.7-4.3-1.7c-4,0-6.1,2.8-6,6.1c0,3.2,2,6,6,6c1.6,0,3.1-0.6,4.3-1.7L356.7,648.8z"/>
	<path fill="#FFFFFF" d="M368.9,650.7v-6.2h-8.7v6.2h-1.1V637h1.1v6.5h8.7V637h1.1v13.7L368.9,650.7L368.9,650.7z"/>
	<path fill="#FFFFFF" d="M374,643.3h8v1h-8v5.4h8.6v1.1H373V637h9.5v1H374V643.3z"/>
</g>
<g>
	<path fill="#FFFFFF" d="M235.8,631.3c0,0.1,0,0.1,0,0.2C235.8,631.4,235.8,631.4,235.8,631.3z"/>
	<path fill="#FFFFFF" d="M245.1,640.6c-0.1,0-0.1,0-0.2,0C245,640.7,245,640.7,245.1,640.6z"/>
	<path fill="#FFFFFF" d="M220.2,647L220.2,647L220.2,647L220.2,647z"/>
	<path fill="#FFFFFF" d="M229.5,656.2L229.5,656.2L229.5,656.2L229.5,656.2z"/>
	<path fill="#FFFFFF" d="M244.2,623.8c-4.3,0-7.9,3.3-8.4,7.4c0,0.1,0,0.1,0,0.2c-0.9,8-7.2,14.6-15.5,15.4l0,0l0,0
		c-4.2,0.5-7.6,4.1-7.6,8.5c0,4.6,3.8,8.5,8.5,8.5c4.4,0,8-3.4,8.4-7.6l0,0l0,0c0.9-8.3,7.4-14.6,15.4-15.5c0.1,0,0.1,0,0.2,0
		c4.2-0.5,7.5-4.1,7.5-8.5C252.6,627.6,248.9,623.8,244.2,623.8z M221.1,659c-2,0-3.6-1.6-3.6-3.6c0-2,1.6-3.6,3.6-3.6
		s3.6,1.6,3.6,3.6C224.7,657.4,223.1,659,221.1,659z M244.2,635.9c-2,0-3.6-1.6-3.6-3.6c0-2,1.6-3.6,3.6-3.6c2,0,3.6,1.6,3.6,3.6
		C247.8,634.2,246.2,635.9,244.2,635.9z"/>
	<path fill="#FFFFFF" d="M244.2,648.9c-3.3,0-6,2.5-6.4,5.7c0,0.1,0,0.1,0,0.2c0,0.2,0,0.4,0,0.6c0,3.5,2.9,6.4,6.4,6.4
		c0.2,0,0.4,0,0.6,0c0.1,0,0.1,0,0.2,0c3.2-0.3,5.7-3.1,5.7-6.4C250.6,651.8,247.8,648.9,244.2,648.9z M244.2,658.1
		c-1.5,0-2.7-1.2-2.7-2.7c0-1.5,1.2-2.7,2.7-2.7c1.5,0,2.7,1.2,2.7,2.7C247,656.9,245.7,658.1,244.2,658.1z"/>
	<path fill="#FFFFFF" d="M221.4,626.2c-3.3,0-6.1,2.5-6.4,5.7c0,0.1,0,0.1,0,0.2c0,0.2,0,0.4,0,0.6c0,3.5,2.9,6.4,6.4,6.4
		c0.2,0,0.4,0,0.6,0c0.1,0,0.1,0,0.2,0c3.2-0.3,5.7-3.1,5.7-6.4C227.8,629,225,626.2,221.4,626.2z M221.4,635.4
		c-1.5,0-2.7-1.2-2.7-2.7c0-1.5,1.2-2.7,2.7-2.7c1.5,0,2.7,1.2,2.7,2.7C224.2,634.1,223,635.4,221.4,635.4z"/>
</g>
</svg>
